<?xml version="1.0" encoding="utf-8"?>
<!DOCTYPE svg PUBLIC "-//W3C//DTD SVG 1.1//EN" "http://www.w3.org/Graphics/SVG/1.1/DTD/svg11.dtd">
<svg xmlns="http://www.w3.org/2000/svg" xmlns:xlink="http://www.w3.org/1999/xlink" version="1.1"><script xlink:href="SVGPan.js"/><g id="viewport" transform="translate(100,100)"><g fill="none" stroke="white" stroke-width="2" transform="translate(200, 300)"><path stroke-width="16" stroke="lightgrey" d="M 0 0 h 66.66666666666666"/><path stroke-width="16" stroke="lightgrey" d="M 0 0  a100, 100 0 0, 1 70.71067811865474, 29.28932188134524"/><path d="M 0 -4.5 h 66.66666666666666 m 0 9 h -66.66666666666666"/><path d="M 0 -4.5 a104.5, 104.5 0 0, 1 73.89265863399422, 30.60734136600578 m -6.363961030678928 6.3639610306789285 a95.5, 95.5 0 0, 0 -67.52869760331528, -27.971302396684706"/><circle cx="0" cy="0" r="2" stroke-width="0" fill="white"/><circle cx="66.66666666666666" cy="0" r="2" stroke-width="0" fill="white"/><circle cx="70.71067811865474" cy="29.28932188134524" r="2" stroke-width="0" fill="white"/><g transform="translate(66.66666666666666, 0)"><g transform="translate(1, 0)"><path stroke-width="16" stroke="lightgrey" d="M 0 0 h 100"/><path d="M 0 -4.5 h 100 m 0 9 h -100"/><circle cx="0" cy="0" r="2" stroke-width="0" fill="white"/><circle cx="100" cy="0" r="2" stroke-width="0" fill="white"/><g transform="translate(100, 0)"><g transform="translate(1, 0)"><path stroke-width="16" stroke="lightgrey" d="M 0 0 h 100"/><path d="M 0 -4.5 h 100 m 0 9 h -100"/><circle cx="0" cy="0" r="2" stroke-width="0" fill="white"/><circle cx="100" cy="0" r="2" stroke-width="0" fill="white"/><g transform="translate(100, 0)"><g transform="translate(1, 0)"><path stroke-width="16" stroke="lightgrey" d="M 0 0 h 66.66666666666666"/><g transform="translate(66.66666666666666, 0) rotate(180)"><path stroke-width="16" stroke="lightgrey" d="M 0 0  a100, 100 0 0, 0 70.71067811865474, -29.28932188134524"/></g><path d="M 0 -4.5 h 66.66666666666666 m 0 9 h -66.66666666666666"/><g transform="translate(66.66666666666666, 0) rotate(180)"><path d="M 0 4.5 a104.5, 104.5 0 0, 0 73.89265863399422, -30.60734136600578 m -6.363961030678928 -6.3639610306789285 a95.5, 95.5 0 0, 1 -67.52869760331528, 27.971302396684706"/></g><circle cx="0" cy="0" r="2" stroke-width="0" fill="white"/><circle cx="66.66666666666666" cy="0" r="2" stroke-width="0" fill="white"/><circle cx="-4.044011451988084" cy="29.28932188134524" r="2" stroke-width="0" fill="white"/><g transform="translate(66.66666666666666, 0)"><g transform="translate(1, 0)"><path stroke-width="16" stroke="lightgrey" d="M 0 0  a100, 100 0 0, 0 70.71067811865474, -29.28932188134524"/><path d="M 0 4.5 a104.5, 104.5 0 0, 0 73.89265863399422, -30.60734136600578 m -6.363961030678928 -6.3639610306789285 a95.5, 95.5 0 0, 1 -67.52869760331528, 27.971302396684706"/><circle cx="0" cy="0" r="2" stroke-width="0" fill="white"/><circle cx="70.71067811865474" cy="-29.28932188134524" r="2" stroke-width="0" fill="white"/><g transform="translate(70.71067811865474, -29.28932188134524) rotate(315)"><g transform="translate(1, 0)"><path stroke-width="16" stroke="lightgrey" d="M 0 0  a100, 100 0 0, 0 70.71067811865474, -29.28932188134524"/><path d="M 0 4.5 a104.5, 104.5 0 0, 0 73.89265863399422, -30.60734136600578 m -6.363961030678928 -6.3639610306789285 a95.5, 95.5 0 0, 1 -67.52869760331528, 27.971302396684706"/><circle cx="0" cy="0" r="2" stroke-width="0" fill="white"/><circle cx="70.71067811865474" cy="-29.28932188134524" r="2" stroke-width="0" fill="white"/><g transform="translate(70.71067811865474, -29.28932188134524) rotate(315)"><g transform="translate(1, 0)"><path stroke-width="16" stroke="lightgrey" d="M 0 0  a100, 100 0 0, 0 70.71067811865474, -29.28932188134524"/><path d="M 0 4.5 a104.5, 104.5 0 0, 0 73.89265863399422, -30.60734136600578 m -6.363961030678928 -6.3639610306789285 a95.5, 95.5 0 0, 1 -67.52869760331528, 27.971302396684706"/><circle cx="0" cy="0" r="2" stroke-width="0" fill="white"/><circle cx="70.71067811865474" cy="-29.28932188134524" r="2" stroke-width="0" fill="white"/><g transform="translate(70.71067811865474, -29.28932188134524) rotate(315)"><g transform="translate(1, 0)"><path stroke-width="16" stroke="lightgrey" d="M 0 0  a100, 100 0 0, 0 70.71067811865474, -29.28932188134524"/><path d="M 0 4.5 a104.5, 104.5 0 0, 0 73.89265863399422, -30.60734136600578 m -6.363961030678928 -6.3639610306789285 a95.5, 95.5 0 0, 1 -67.52869760331528, 27.971302396684706"/><circle cx="0" cy="0" r="2" stroke-width="0" fill="white"/><circle cx="70.71067811865474" cy="-29.28932188134524" r="2" stroke-width="0" fill="white"/><g transform="translate(70.71067811865474, -29.28932188134524) rotate(315)"><g transform="translate(1, 0)"><path stroke-width="16" stroke="lightgrey" d="M 0 0 h 66.66666666666666"/><path stroke-width="16" stroke="lightgrey" d="M 0 0  a100, 100 0 0, 1 70.71067811865474, 29.28932188134524"/><path d="M 0 -4.5 h 66.66666666666666 m 0 9 h -66.66666666666666"/><path d="M 0 -4.5 a104.5, 104.5 0 0, 1 73.89265863399422, 30.60734136600578 m -6.363961030678928 6.3639610306789285 a95.5, 95.5 0 0, 0 -67.52869760331528, -27.971302396684706"/><circle cx="0" cy="0" r="2" stroke-width="0" fill="white"/><circle cx="66.66666666666666" cy="0" r="2" stroke-width="0" fill="white"/><circle cx="70.71067811865474" cy="29.28932188134524" r="2" stroke-width="0" fill="white"/><g transform="translate(66.66666666666666, 0)"><g transform="translate(1, 0)"><path stroke-width="16" stroke="lightgrey" d="M 0 0 h 100"/><path d="M 0 -4.5 h 100 m 0 9 h -100"/><circle cx="0" cy="0" r="2" stroke-width="0" fill="white"/><circle cx="100" cy="0" r="2" stroke-width="0" fill="white"/><g transform="translate(100, 0)"><g transform="translate(1, 0)"><path stroke-width="16" stroke="lightgrey" d="M 0 0 h 100"/><path d="M 0 -4.5 h 100 m 0 9 h -100"/><circle cx="0" cy="0" r="2" stroke-width="0" fill="white"/><circle cx="100" cy="0" r="2" stroke-width="0" fill="white"/><g transform="translate(100, 0)"><g transform="translate(1, 0)"><path stroke-width="16" stroke="lightgrey" d="M 0 0 h 66.66666666666666"/><g transform="translate(66.66666666666666, 0) rotate(180)"><path stroke-width="16" stroke="lightgrey" d="M 0 0  a100, 100 0 0, 0 70.71067811865474, -29.28932188134524"/></g><path d="M 0 -4.5 h 66.66666666666666 m 0 9 h -66.66666666666666"/><g transform="translate(66.66666666666666, 0) rotate(180)"><path d="M 0 4.5 a104.5, 104.5 0 0, 0 73.89265863399422, -30.60734136600578 m -6.363961030678928 -6.3639610306789285 a95.5, 95.5 0 0, 1 -67.52869760331528, 27.971302396684706"/></g><circle cx="0" cy="0" r="2" stroke-width="0" fill="white"/><circle cx="66.66666666666666" cy="0" r="2" stroke-width="0" fill="white"/><circle cx="-4.044011451988084" cy="29.28932188134524" r="2" stroke-width="0" fill="white"/><g transform="translate(66.66666666666666, 0)"><g transform="translate(1, 0)"><path stroke-width="16" stroke="lightgrey" d="M 0 0  a100, 100 0 0, 0 70.71067811865474, -29.28932188134524"/><path d="M 0 4.5 a104.5, 104.5 0 0, 0 73.89265863399422, -30.60734136600578 m -6.363961030678928 -6.3639610306789285 a95.5, 95.5 0 0, 1 -67.52869760331528, 27.971302396684706"/><circle cx="0" cy="0" r="2" stroke-width="0" fill="white"/><circle cx="70.71067811865474" cy="-29.28932188134524" r="2" stroke-width="0" fill="white"/><g transform="translate(70.71067811865474, -29.28932188134524) rotate(315)"><g transform="translate(1, 0)"><path stroke-width="16" stroke="lightgrey" d="M 0 0  a100, 100 0 0, 0 70.71067811865474, -29.28932188134524"/><path d="M 0 4.5 a104.5, 104.5 0 0, 0 73.89265863399422, -30.60734136600578 m -6.363961030678928 -6.3639610306789285 a95.5, 95.5 0 0, 1 -67.52869760331528, 27.971302396684706"/><circle cx="0" cy="0" r="2" stroke-width="0" fill="white"/><circle cx="70.71067811865474" cy="-29.28932188134524" r="2" stroke-width="0" fill="white"/><g transform="translate(70.71067811865474, -29.28932188134524) rotate(315)"><g transform="translate(1, 0)"><path stroke-width="16" stroke="lightgrey" d="M 0 0  a100, 100 0 0, 0 70.71067811865474, -29.28932188134524"/><path d="M 0 4.5 a104.5, 104.5 0 0, 0 73.89265863399422, -30.60734136600578 m -6.363961030678928 -6.3639610306789285 a95.5, 95.5 0 0, 1 -67.52869760331528, 27.971302396684706"/><circle cx="0" cy="0" r="2" stroke-width="0" fill="white"/><circle cx="70.71067811865474" cy="-29.28932188134524" r="2" stroke-width="0" fill="white"/><g transform="translate(70.71067811865474, -29.28932188134524) rotate(315)"><g transform="translate(1, 0)"><path stroke-width="16" stroke="lightgrey" d="M 0 0  a100, 100 0 0, 0 70.71067811865474, -29.28932188134524"/><path d="M 0 4.5 a104.5, 104.5 0 0, 0 73.89265863399422, -30.60734136600578 m -6.363961030678928 -6.3639610306789285 a95.5, 95.5 0 0, 1 -67.52869760331528, 27.971302396684706"/><circle cx="0" cy="0" r="2" stroke-width="0" fill="white"/><circle cx="70.71067811865474" cy="-29.28932188134524" r="2" stroke-width="0" fill="white"/><g transform="translate(70.71067811865474, -29.28932188134524) rotate(315)"><g transform="translate(1, 0)"/></g></g></g></g></g></g></g></g></g></g></g></g></g></g></g></g></g></g></g></g></g></g></g></g></g></g></g></g></g></g></g></g><g fill="none" stroke="white" stroke-width="2" transform="translate(276, 38)"><path stroke-width="16" stroke="lightgrey" d="M 0 0 h 66.66666666666666"/><g transform="translate(66.66666666666666, 0) rotate(180)"><path stroke-width="16" stroke="lightgrey" d="M 0 0  a100, 100 0 0, 0 70.71067811865474, -29.28932188134524"/></g><path d="M 0 -4.5 h 66.66666666666666 m 0 9 h -66.66666666666666"/><g transform="translate(66.66666666666666, 0) rotate(180)"><path d="M 0 4.5 a104.5, 104.5 0 0, 0 73.89265863399422, -30.60734136600578 m -6.363961030678928 -6.3639610306789285 a95.5, 95.5 0 0, 1 -67.52869760331528, 27.971302396684706"/></g><circle cx="0" cy="0" r="2" stroke-width="0" fill="white"/><circle cx="66.66666666666666" cy="0" r="2" stroke-width="0" fill="white"/><circle cx="-4.044011451988084" cy="29.28932188134524" r="2" stroke-width="0" fill="white"/><g transform="translate(66.66666666666666, 0)"><g transform="translate(1, 0)"><path stroke-width="16" stroke="lightgrey" d="M 0 0 h 50"/><path d="M 0 -4.5 h 50 m 0 9 h -50"/><circle cx="0" cy="0" r="2" stroke-width="0" fill="white"/><circle cx="50" cy="0" r="2" stroke-width="0" fill="white"/><g transform="translate(50, 0)"><g transform="translate(1, 0)"><path stroke-width="16" stroke="lightgrey" d="M 0 0 h 66.66666666666666"/><path stroke-width="16" stroke="lightgrey" d="M 0 0  a100, 100 0 0, 1 70.71067811865474, 29.28932188134524"/><path d="M 0 -4.5 h 66.66666666666666 m 0 9 h -66.66666666666666"/><path d="M 0 -4.5 a104.5, 104.5 0 0, 1 73.89265863399422, 30.60734136600578 m -6.363961030678928 6.3639610306789285 a95.5, 95.5 0 0, 0 -67.52869760331528, -27.971302396684706"/><circle cx="0" cy="0" r="2" stroke-width="0" fill="white"/><circle cx="66.66666666666666" cy="0" r="2" stroke-width="0" fill="white"/><circle cx="70.71067811865474" cy="29.28932188134524" r="2" stroke-width="0" fill="white"/><g transform="translate(66.66666666666666, 0)"><g transform="translate(1, 0)"><path stroke-width="16" stroke="lightgrey" d="M 0 0 h 100"/><path d="M 0 -4.5 h 100 m 0 9 h -100"/><circle cx="0" cy="0" r="2" stroke-width="0" fill="white"/><circle cx="100" cy="0" r="2" stroke-width="0" fill="white"/><g transform="translate(100, 0)"><g transform="translate(1, 0)"><path stroke-width="16" stroke="lightgrey" d="M 0 0  a100, 100 0 0, 1 70.71067811865474, 29.28932188134524"/><path d="M 0 -4.5 a104.5, 104.5 0 0, 1 73.89265863399422, 30.60734136600578 m -6.363961030678928 6.3639610306789285 a95.5, 95.5 0 0, 0 -67.52869760331528, -27.971302396684706"/><circle cx="0" cy="0" r="2" stroke-width="0" fill="white"/><circle cx="70.71067811865474" cy="29.28932188134524" r="2" stroke-width="0" fill="white"/><g transform="translate(70.71067811865474, 29.28932188134524) rotate(45)"><g transform="translate(1, 0)"><path stroke-width="16" stroke="lightgrey" d="M 0 0  a100, 100 0 0, 1 70.71067811865474, 29.28932188134524"/><path d="M 0 -4.5 a104.5, 104.5 0 0, 1 73.89265863399422, 30.60734136600578 m -6.363961030678928 6.3639610306789285 a95.5, 95.5 0 0, 0 -67.52869760331528, -27.971302396684706"/><circle cx="0" cy="0" r="2" stroke-width="0" fill="white"/><circle cx="70.71067811865474" cy="29.28932188134524" r="2" stroke-width="0" fill="white"/><g transform="translate(70.71067811865474, 29.28932188134524) rotate(45)"><g transform="translate(1, 0)"><path stroke-width="16" stroke="lightgrey" d="M 0 0 h 66.66666666666666"/><path d="M 0 -4.5 h 66.66666666666666 m 0 9 h -66.66666666666666"/><circle cx="0" cy="0" r="2" stroke-width="0" fill="white"/><circle cx="66.66666666666666" cy="0" r="2" stroke-width="0" fill="white"/><g transform="translate(66.66666666666666, 0)"><g transform="translate(1, 0)"><path stroke-width="16" stroke="lightgrey" d="M 0 0 h 50"/><path d="M 0 -4.5 h 50 m 0 9 h -50"/><circle cx="0" cy="0" r="2" stroke-width="0" fill="white"/><circle cx="50" cy="0" r="2" stroke-width="0" fill="white"/><g transform="translate(50, 0)"><g transform="translate(1, 0)"><path stroke-width="16" stroke="lightgrey" d="M 0 0  a100, 100 0 0, 1 70.71067811865474, 29.28932188134524"/><path d="M 0 -4.5 a104.5, 104.5 0 0, 1 73.89265863399422, 30.60734136600578 m -6.363961030678928 6.3639610306789285 a95.5, 95.5 0 0, 0 -67.52869760331528, -27.971302396684706"/><circle cx="0" cy="0" r="2" stroke-width="0" fill="white"/><circle cx="70.71067811865474" cy="29.28932188134524" r="2" stroke-width="0" fill="white"/><g transform="translate(70.71067811865474, 29.28932188134524) rotate(45)"><g transform="translate(1, 0)"><path stroke-width="16" stroke="lightgrey" d="M 0 0  a100, 100 0 0, 1 70.71067811865474, 29.28932188134524"/><path d="M 0 -4.5 a104.5, 104.5 0 0, 1 73.89265863399422, 30.60734136600578 m -6.363961030678928 6.3639610306789285 a95.5, 95.5 0 0, 0 -67.52869760331528, -27.971302396684706"/><circle cx="0" cy="0" r="2" stroke-width="0" fill="white"/><circle cx="70.71067811865474" cy="29.28932188134524" r="2" stroke-width="0" fill="white"/><g transform="translate(70.71067811865474, 29.28932188134524) rotate(45)"><g transform="translate(1, 0)"><path stroke-width="16" stroke="lightgrey" d="M 0 0 h 100"/><path d="M 0 -4.5 h 100 m 0 9 h -100"/><circle cx="0" cy="0" r="2" stroke-width="0" fill="white"/><circle cx="100" cy="0" r="2" stroke-width="0" fill="white"/><g transform="translate(100, 0)"><g transform="translate(1, 0)"><path stroke-width="16" stroke="lightgrey" d="M 0 0 h 66.66666666666666"/><g transform="translate(66.66666666666666, 0) rotate(180)"><path stroke-width="16" stroke="lightgrey" d="M 0 0  a100, 100 0 0, 0 70.71067811865474, -29.28932188134524"/></g><path d="M 0 -4.5 h 66.66666666666666 m 0 9 h -66.66666666666666"/><g transform="translate(66.66666666666666, 0) rotate(180)"><path d="M 0 4.5 a104.5, 104.5 0 0, 0 73.89265863399422, -30.60734136600578 m -6.363961030678928 -6.3639610306789285 a95.5, 95.5 0 0, 1 -67.52869760331528, 27.971302396684706"/></g><circle cx="0" cy="0" r="2" stroke-width="0" fill="white"/><circle cx="66.66666666666666" cy="0" r="2" stroke-width="0" fill="white"/><circle cx="-4.044011451988084" cy="29.28932188134524" r="2" stroke-width="0" fill="white"/><g transform="translate(66.66666666666666, 0)"><g transform="translate(1, 0)"><path stroke-width="16" stroke="lightgrey" d="M 0 0 h 50"/><path d="M 0 -4.5 h 50 m 0 9 h -50"/><circle cx="0" cy="0" r="2" stroke-width="0" fill="white"/><circle cx="50" cy="0" r="2" stroke-width="0" fill="white"/><g transform="translate(50, 0)"><g transform="translate(1, 0)"><path stroke-width="16" stroke="lightgrey" d="M 0 0 h 66.66666666666666"/><path stroke-width="16" stroke="lightgrey" d="M 0 0  a100, 100 0 0, 1 70.71067811865474, 29.28932188134524"/><path d="M 0 -4.5 h 66.66666666666666 m 0 9 h -66.66666666666666"/><path d="M 0 -4.5 a104.5, 104.5 0 0, 1 73.89265863399422, 30.60734136600578 m -6.363961030678928 6.3639610306789285 a95.5, 95.5 0 0, 0 -67.52869760331528, -27.971302396684706"/><circle cx="0" cy="0" r="2" stroke-width="0" fill="white"/><circle cx="66.66666666666666" cy="0" r="2" stroke-width="0" fill="white"/><circle cx="70.71067811865474" cy="29.28932188134524" r="2" stroke-width="0" fill="white"/><g transform="translate(66.66666666666666, 0)"><g transform="translate(1, 0)"><path stroke-width="16" stroke="lightgrey" d="M 0 0 h 100"/><path d="M 0 -4.5 h 100 m 0 9 h -100"/><circle cx="0" cy="0" r="2" stroke-width="0" fill="white"/><circle cx="100" cy="0" r="2" stroke-width="0" fill="white"/><g transform="translate(100, 0)"><g transform="translate(1, 0)"><path stroke-width="16" stroke="lightgrey" d="M 0 0  a100, 100 0 0, 1 70.71067811865474, 29.28932188134524"/><path d="M 0 -4.5 a104.5, 104.5 0 0, 1 73.89265863399422, 30.60734136600578 m -6.363961030678928 6.3639610306789285 a95.5, 95.5 0 0, 0 -67.52869760331528, -27.971302396684706"/><circle cx="0" cy="0" r="2" stroke-width="0" fill="white"/><circle cx="70.71067811865474" cy="29.28932188134524" r="2" stroke-width="0" fill="white"/><g transform="translate(70.71067811865474, 29.28932188134524) rotate(45)"><g transform="translate(1, 0)"><path stroke-width="16" stroke="lightgrey" d="M 0 0  a100, 100 0 0, 1 70.71067811865474, 29.28932188134524"/><path d="M 0 -4.5 a104.5, 104.5 0 0, 1 73.89265863399422, 30.60734136600578 m -6.363961030678928 6.3639610306789285 a95.5, 95.5 0 0, 0 -67.52869760331528, -27.971302396684706"/><circle cx="0" cy="0" r="2" stroke-width="0" fill="white"/><circle cx="70.71067811865474" cy="29.28932188134524" r="2" stroke-width="0" fill="white"/><g transform="translate(70.71067811865474, 29.28932188134524) rotate(45)"><g transform="translate(1, 0)"><path stroke-width="16" stroke="lightgrey" d="M 0 0 h 66.66666666666666"/><path d="M 0 -4.5 h 66.66666666666666 m 0 9 h -66.66666666666666"/><circle cx="0" cy="0" r="2" stroke-width="0" fill="white"/><circle cx="66.66666666666666" cy="0" r="2" stroke-width="0" fill="white"/><g transform="translate(66.66666666666666, 0)"><g transform="translate(1, 0)"><path stroke-width="16" stroke="lightgrey" d="M 0 0 h 50"/><path d="M 0 -4.5 h 50 m 0 9 h -50"/><circle cx="0" cy="0" r="2" stroke-width="0" fill="white"/><circle cx="50" cy="0" r="2" stroke-width="0" fill="white"/><g transform="translate(50, 0)"><g transform="translate(1, 0)"><path stroke-width="16" stroke="lightgrey" d="M 0 0  a100, 100 0 0, 1 70.71067811865474, 29.28932188134524"/><path d="M 0 -4.5 a104.5, 104.5 0 0, 1 73.89265863399422, 30.60734136600578 m -6.363961030678928 6.3639610306789285 a95.5, 95.5 0 0, 0 -67.52869760331528, -27.971302396684706"/><circle cx="0" cy="0" r="2" stroke-width="0" fill="white"/><circle cx="70.71067811865474" cy="29.28932188134524" r="2" stroke-width="0" fill="white"/><g transform="translate(70.71067811865474, 29.28932188134524) rotate(45)"><g transform="translate(1, 0)"><path stroke-width="16" stroke="lightgrey" d="M 0 0  a100, 100 0 0, 1 70.71067811865474, 29.28932188134524"/><path d="M 0 -4.5 a104.5, 104.5 0 0, 1 73.89265863399422, 30.60734136600578 m -6.363961030678928 6.3639610306789285 a95.5, 95.5 0 0, 0 -67.52869760331528, -27.971302396684706"/><circle cx="0" cy="0" r="2" stroke-width="0" fill="white"/><circle cx="70.71067811865474" cy="29.28932188134524" r="2" stroke-width="0" fill="white"/><g transform="translate(70.71067811865474, 29.28932188134524) rotate(45)"><g transform="translate(1, 0)"><path stroke-width="16" stroke="lightgrey" d="M 0 0 h 66.66666666666666"/><path d="M 0 -4.5 h 66.66666666666666 m 0 9 h -66.66666666666666"/><circle cx="0" cy="0" r="2" stroke-width="0" fill="white"/><circle cx="66.66666666666666" cy="0" r="2" stroke-width="0" fill="white"/><g transform="translate(66.66666666666666, 0)"><g transform="translate(1, 0)"><path stroke-width="16" stroke="lightgrey" d="M 0 0 h 33.33333333333333"/><path d="M 0 -4.5 h 33.33333333333333 m 0 9 h -33.33333333333333"/><circle cx="0" cy="0" r="2" stroke-width="0" fill="white"/><circle cx="33.33333333333333" cy="0" r="2" stroke-width="0" fill="white"/><g transform="translate(33.33333333333333, 0)"><g transform="translate(1, 0)"/></g></g></g></g></g></g></g></g></g></g></g></g></g></g></g></g></g></g></g></g></g></g></g></g></g></g></g></g></g></g></g></g></g></g></g></g></g></g></g></g></g></g></g></g></g></g></g></svg>
